<mxfile host="app.diagrams.net" agent="Mozilla/5.0 (Windows NT 10.0; Win64; x64) AppleWebKit/537.36 (KHTML, like Gecko) Chrome/134.0.0.0 Safari/537.36 Edg/134.0.0.0" version="26.1.1">
  <diagram name="Страница — 1" id="yUnetwLY6hC_SOKDKd0_">
    <mxGraphModel dx="856" dy="452" grid="1" gridSize="10" guides="1" tooltips="1" connect="1" arrows="1" fold="1" page="1" pageScale="1" pageWidth="827" pageHeight="1169" math="0" shadow="0">
      <root>
        <mxCell id="0" />
        <mxCell id="1" parent="0" />
        <mxCell id="CQ37rXH5Fs0ZW7W6_GFj-19" style="edgeStyle=orthogonalEdgeStyle;rounded=0;orthogonalLoop=1;jettySize=auto;html=1;exitX=0.25;exitY=1;exitDx=0;exitDy=0;entryX=0.25;entryY=0;entryDx=0;entryDy=0;" edge="1" parent="1" source="CQ37rXH5Fs0ZW7W6_GFj-2" target="CQ37rXH5Fs0ZW7W6_GFj-4">
          <mxGeometry relative="1" as="geometry" />
        </mxCell>
        <mxCell id="CQ37rXH5Fs0ZW7W6_GFj-2" value="Model" style="rounded=0;whiteSpace=wrap;html=1;" vertex="1" parent="1">
          <mxGeometry x="205" y="130" width="110" height="40" as="geometry" />
        </mxCell>
        <mxCell id="CQ37rXH5Fs0ZW7W6_GFj-14" style="edgeStyle=orthogonalEdgeStyle;rounded=0;orthogonalLoop=1;jettySize=auto;html=1;entryX=0;entryY=0.5;entryDx=0;entryDy=0;" edge="1" parent="1" source="CQ37rXH5Fs0ZW7W6_GFj-3" target="CQ37rXH5Fs0ZW7W6_GFj-5">
          <mxGeometry relative="1" as="geometry">
            <Array as="points">
              <mxPoint x="185" y="360" />
              <mxPoint x="185" y="500" />
            </Array>
          </mxGeometry>
        </mxCell>
        <mxCell id="CQ37rXH5Fs0ZW7W6_GFj-17" style="edgeStyle=orthogonalEdgeStyle;rounded=0;orthogonalLoop=1;jettySize=auto;html=1;exitX=0.75;exitY=0;exitDx=0;exitDy=0;entryX=0.75;entryY=1;entryDx=0;entryDy=0;" edge="1" parent="1" source="CQ37rXH5Fs0ZW7W6_GFj-3" target="CQ37rXH5Fs0ZW7W6_GFj-4">
          <mxGeometry relative="1" as="geometry" />
        </mxCell>
        <mxCell id="CQ37rXH5Fs0ZW7W6_GFj-3" value="View" style="rounded=0;whiteSpace=wrap;html=1;" vertex="1" parent="1">
          <mxGeometry x="200" y="330" width="120" height="60" as="geometry" />
        </mxCell>
        <mxCell id="CQ37rXH5Fs0ZW7W6_GFj-18" style="edgeStyle=orthogonalEdgeStyle;rounded=0;orthogonalLoop=1;jettySize=auto;html=1;exitX=0.75;exitY=0;exitDx=0;exitDy=0;entryX=0.75;entryY=1;entryDx=0;entryDy=0;" edge="1" parent="1" source="CQ37rXH5Fs0ZW7W6_GFj-4" target="CQ37rXH5Fs0ZW7W6_GFj-2">
          <mxGeometry relative="1" as="geometry" />
        </mxCell>
        <mxCell id="CQ37rXH5Fs0ZW7W6_GFj-4" value="ViewModel" style="rounded=0;whiteSpace=wrap;html=1;" vertex="1" parent="1">
          <mxGeometry x="200" y="230" width="120" height="60" as="geometry" />
        </mxCell>
        <mxCell id="CQ37rXH5Fs0ZW7W6_GFj-15" style="edgeStyle=orthogonalEdgeStyle;rounded=0;orthogonalLoop=1;jettySize=auto;html=1;entryX=1;entryY=0.5;entryDx=0;entryDy=0;" edge="1" parent="1" source="CQ37rXH5Fs0ZW7W6_GFj-5" target="CQ37rXH5Fs0ZW7W6_GFj-3">
          <mxGeometry relative="1" as="geometry">
            <Array as="points">
              <mxPoint x="340" y="500" />
              <mxPoint x="340" y="360" />
            </Array>
          </mxGeometry>
        </mxCell>
        <mxCell id="CQ37rXH5Fs0ZW7W6_GFj-5" value="USER" style="ellipse;whiteSpace=wrap;html=1;" vertex="1" parent="1">
          <mxGeometry x="205" y="460" width="120" height="80" as="geometry" />
        </mxCell>
        <mxCell id="CQ37rXH5Fs0ZW7W6_GFj-16" style="edgeStyle=orthogonalEdgeStyle;rounded=0;orthogonalLoop=1;jettySize=auto;html=1;exitX=0.25;exitY=1;exitDx=0;exitDy=0;entryX=0.308;entryY=0.033;entryDx=0;entryDy=0;entryPerimeter=0;" edge="1" parent="1" source="CQ37rXH5Fs0ZW7W6_GFj-4" target="CQ37rXH5Fs0ZW7W6_GFj-3">
          <mxGeometry relative="1" as="geometry">
            <Array as="points">
              <mxPoint x="230" y="332" />
            </Array>
          </mxGeometry>
        </mxCell>
      </root>
    </mxGraphModel>
  </diagram>
</mxfile>
